<?xml version="1.0" encoding="UTF-8"?> <svg xmlns="http://www.w3.org/2000/svg" width="723.66" height="182.842" viewBox="0 0 723.66 182.842"><path d="M91.423,38.988a13.445,13.445,0,0,1,13.444,13.444V91.423A52.434,52.434,0,0,1,0,91.423V52.432a13.444,13.444,0,0,1,26.888,0V91.423a25.546,25.546,0,0,0,51.091,0V52.432A13.443,13.443,0,0,1,91.423,38.988m77.977,0a52.49,52.49,0,0,0-52.432,52.435v38.988a13.444,13.444,0,1,0,26.888,0V91.423a25.544,25.544,0,1,1,51.087,0v38.988a13.446,13.446,0,0,0,26.892,0V91.423A52.493,52.493,0,0,0,169.4,38.988m271.245,77.979a25.546,25.546,0,1,0-25.54-25.544,25.571,25.571,0,0,0,25.54,25.544m0-77.979a52.434,52.434,0,1,1-52.432,52.435,52.493,52.493,0,0,1,52.432-52.435m230.584,77.979a25.546,25.546,0,1,0-25.544-25.544,25.574,25.574,0,0,0,25.544,25.544m0-77.979A52.434,52.434,0,1,1,618.8,91.423a52.49,52.49,0,0,1,52.431-52.435m-423.851,0a13.445,13.445,0,0,0-13.444,13.444v77.979a13.444,13.444,0,0,0,26.888,0V52.432a13.445,13.445,0,0,0-13.444-13.444m77.977,0a52.434,52.434,0,0,0,0,104.867,13.444,13.444,0,0,0,0-26.888A25.546,25.546,0,1,1,350.9,91.423V169.4a13.444,13.444,0,1,0,26.888,0V91.423a52.49,52.49,0,0,0-52.432-52.435M594.925,0a13.44,13.44,0,0,0-13.444,13.444V91.419a25.544,25.544,0,1,1-25.543-25.544,13.444,13.444,0,0,0,0-26.887,52.433,52.433,0,1,0,52.431,52.431V13.444A13.443,13.443,0,0,0,594.925,0" fill="#59bcae"></path></svg> 